<?xml version="1.0" encoding="UTF-8" standalone="no"?>
<!DOCTYPE svg PUBLIC "-//W3C//DTD SVG 1.1//EN" "http://www.w3.org/Graphics/SVG/1.1/DTD/svg11.dtd">
<svg xmlns="http://www.w3.org/2000/svg" version="1.1" viewBox="0 0 810 256" width="810.0pt" height="256.0pt">
<path d="M 0.00 0.00 L 36.13 0.00 L 37.04 0.95 C 40.63 5.64 46.11 8.44 49.40 13.24 L 49.95 14.16 C 52.65 18.34 55.81 22.24 58.84 26.17 C 60.25 26.72 61.65 27.28 63.05 27.84 C 64.51 31.02 65.92 34.21 67.17 37.48 C 68.09 37.55 69.02 37.61 69.95 37.68 C 69.39 34.25 67.97 31.24 66.40 28.18 C 71.75 29.36 74.31 33.30 79.21 35.72 C 83.48 37.91 87.27 41.11 91.27 43.88 C 91.44 44.56 91.61 45.24 91.79 45.91 C 94.86 47.91 97.58 49.49 101.37 49.62 C 101.54 49.87 101.70 50.13 101.86 50.39 C 104.99 50.53 108.12 50.65 111.26 50.64 C 112.95 50.93 114.65 51.23 116.34 51.57 C 112.37 51.23 108.82 50.50 105.31 52.95 C 102.66 52.46 99.98 52.03 97.29 51.83 C 95.20 51.63 92.94 52.85 91.01 53.56 C 84.56 51.41 77.84 50.59 71.35 48.69 C 64.42 46.24 57.81 42.52 51.95 38.09 C 43.27 32.30 30.46 30.10 20.92 35.03 C 16.58 36.92 12.27 38.53 8.49 41.47 C 5.96 43.52 3.02 44.21 0.00 45.22 L 0.00 0.00 Z" fill="#31302d" />
<path d="M 36.13 0.00 L 37.40 0.00 C 38.41 1.05 39.39 2.12 40.39 3.18 C 43.21 3.67 45.03 5.00 47.01 7.00 C 52.18 12.28 58.07 16.69 63.01 22.19 C 58.15 19.21 53.81 16.18 50.35 11.55 C 50.03 12.11 49.71 12.67 49.40 13.24 C 46.11 8.44 40.63 5.64 37.04 0.95 L 36.13 0.00 Z" fill="#9d9ba2" />
<path d="M 37.40 0.00 L 210.83 0.00 C 168.16 8.27 127.51 20.40 85.97 32.93 C 83.63 33.65 81.39 34.62 79.21 35.72 C 74.31 33.30 71.75 29.36 66.40 28.18 C 65.95 26.94 65.58 25.65 65.21 24.38 C 64.48 23.65 63.75 22.92 63.01 22.19 C 58.07 16.69 52.18 12.28 47.01 7.00 C 45.03 5.00 43.21 3.67 40.39 3.18 C 39.39 2.12 38.41 1.05 37.40 0.00 Z" fill="#675996" />
<path d="M 210.83 0.00 L 333.61 0.00 C 391.05 13.85 443.22 42.88 499.50 60.61 C 514.07 65.38 528.93 69.06 544.05 71.62 C 576.86 77.63 611.19 76.83 643.24 67.20 C 667.73 60.21 691.05 47.30 711.98 32.98 C 726.99 22.86 741.09 11.63 754.94 0.00 L 810.00 0.00 L 810.00 164.40 C 797.40 168.79 784.67 172.83 771.95 176.86 C 740.46 187.24 708.71 196.75 676.80 205.72 C 643.15 215.03 607.98 223.62 573.21 227.18 C 548.91 229.50 523.85 229.47 499.77 225.17 C 467.20 219.56 434.79 207.18 404.36 194.47 L 404.03 193.79 C 402.21 190.70 399.71 188.44 397.13 186.01 C 396.98 186.98 396.83 187.96 396.68 188.93 C 396.35 187.18 395.89 185.51 395.10 183.90 C 389.41 172.97 383.54 162.97 372.62 156.50 C 369.57 154.18 365.80 153.57 362.05 153.90 C 358.90 154.29 356.35 155.63 353.24 155.30 C 346.14 154.60 339.10 153.53 331.96 153.13 C 322.14 151.72 312.36 150.14 302.48 149.23 C 283.99 147.48 266.19 143.26 248.40 138.01 C 244.25 137.07 242.60 134.10 240.06 131.09 C 238.49 128.88 237.09 126.57 235.69 124.24 C 234.23 121.68 231.63 120.40 229.05 119.18 L 228.01 118.72 C 222.33 117.79 217.41 119.60 211.94 117.31 C 211.12 115.79 210.52 113.94 209.02 113.01 C 205.60 110.81 201.63 109.47 198.04 107.54 C 196.31 107.47 194.59 107.41 192.86 107.36 C 188.80 104.29 185.66 100.44 182.13 96.85 C 179.04 93.96 175.78 94.55 171.94 93.89 C 169.53 93.67 167.95 92.31 165.95 91.13 C 162.47 88.91 158.74 87.41 155.03 85.66 C 153.83 85.57 152.63 85.48 151.43 85.40 C 148.43 82.28 145.27 79.81 143.06 76.02 C 141.30 71.71 138.13 68.78 134.71 65.77 C 133.50 64.76 132.24 63.81 130.98 62.87 C 130.06 60.97 129.48 58.58 127.57 57.45 C 125.64 56.25 123.25 55.70 121.11 55.00 C 119.70 53.75 118.32 51.75 116.34 51.57 C 114.65 51.23 112.95 50.93 111.26 50.64 C 108.12 50.65 104.99 50.53 101.86 50.39 C 101.70 50.13 101.54 49.87 101.37 49.62 C 97.58 49.49 94.86 47.91 91.79 45.91 C 91.61 45.24 91.44 44.56 91.27 43.88 C 87.27 41.11 83.48 37.91 79.21 35.72 C 81.39 34.62 83.63 33.65 85.97 32.93 C 127.51 20.40 168.16 8.27 210.83 0.00 Z" fill="#ffffff" />
<path d="M 333.61 0.00 L 754.94 0.00 C 741.09 11.63 726.99 22.86 711.98 32.98 C 691.05 47.30 667.73 60.21 643.24 67.20 C 611.19 76.83 576.86 77.63 544.05 71.62 C 528.93 69.06 514.07 65.38 499.50 60.61 C 443.22 42.88 391.05 13.85 333.61 0.00 Z" fill="#675996" />
<path d="M 50.35 11.55 C 53.81 16.18 58.15 19.21 63.01 22.19 C 63.75 22.92 64.48 23.65 65.21 24.38 C 65.58 25.65 65.95 26.94 66.40 28.18 C 67.97 31.24 69.39 34.25 69.95 37.68 C 69.02 37.61 68.09 37.55 67.17 37.48 C 65.92 34.21 64.51 31.02 63.05 27.84 C 61.65 27.28 60.25 26.72 58.84 26.17 C 55.81 22.24 52.65 18.34 49.95 14.16 L 49.40 13.24 C 49.71 12.67 50.03 12.11 50.35 11.55 Z" fill="#c2c1c8" />
<path d="M 51.95 38.09 C 57.81 42.52 64.42 46.24 71.35 48.69 C 77.84 50.59 84.56 51.41 91.01 53.56 C 92.94 52.85 95.20 51.63 97.29 51.83 C 99.98 52.03 102.66 52.46 105.31 52.95 C 109.04 54.01 112.59 54.66 116.47 54.70 C 118.94 56.94 121.61 58.76 124.48 60.46 C 127.32 62.13 129.48 64.61 132.42 66.00 C 129.77 71.97 126.91 78.62 122.43 83.46 C 121.52 84.67 119.76 83.74 118.67 83.29 C 116.98 82.49 115.29 81.77 113.50 81.22 C 112.69 76.84 112.32 72.11 113.01 67.70 C 114.37 63.54 116.94 60.18 117.27 55.63 C 114.80 56.17 112.43 56.81 110.29 58.22 C 105.70 61.12 101.02 64.28 97.11 68.07 C 95.23 69.72 93.25 71.93 90.89 72.83 C 88.81 73.40 86.28 72.45 84.22 72.00 C 84.29 70.31 84.36 68.63 84.44 66.94 C 81.96 68.40 79.46 69.80 76.89 71.09 C 77.42 68.79 77.50 65.96 79.31 64.27 C 81.54 61.98 83.77 60.33 84.52 57.02 C 79.48 57.02 74.31 57.61 69.36 56.48 C 65.31 55.48 61.51 53.23 58.35 50.54 C 55.53 48.16 53.61 45.40 50.16 43.76 C 46.31 41.93 42.05 40.87 37.91 39.95 C 31.70 38.42 24.47 40.95 18.47 42.63 C 14.79 43.89 10.35 44.83 7.25 47.24 C 4.86 50.04 2.81 52.96 0.00 55.40 L 0.00 45.22 C 3.02 44.21 5.96 43.52 8.49 41.47 C 12.27 38.53 16.58 36.92 20.92 35.03 C 30.46 30.10 43.27 32.30 51.95 38.09 Z" fill="#222221" />
<path d="M 37.91 39.95 C 42.05 40.87 46.31 41.93 50.16 43.76 C 53.61 45.40 55.53 48.16 58.35 50.54 C 61.51 53.23 65.31 55.48 69.36 56.48 C 74.31 57.61 79.48 57.02 84.52 57.02 C 83.77 60.33 81.54 61.98 79.31 64.27 C 77.50 65.96 77.42 68.79 76.89 71.09 C 79.46 69.80 81.96 68.40 84.44 66.94 C 84.36 68.63 84.29 70.31 84.22 72.00 C 86.28 72.45 88.81 73.40 90.89 72.83 C 93.25 71.93 95.23 69.72 97.11 68.07 C 101.02 64.28 105.70 61.12 110.29 58.22 C 112.43 56.81 114.80 56.17 117.27 55.63 C 116.94 60.18 114.37 63.54 113.01 67.70 C 112.32 72.11 112.69 76.84 113.50 81.22 C 115.29 81.77 116.98 82.49 118.67 83.29 C 119.76 83.74 121.52 84.67 122.43 83.46 C 126.91 78.62 129.77 71.97 132.42 66.00 L 132.96 66.27 C 135.00 68.06 136.66 70.17 138.24 72.36 C 137.01 72.74 135.78 73.11 134.56 73.48 C 136.83 77.61 137.07 81.30 136.55 85.89 C 136.01 91.12 135.31 96.32 135.11 101.58 C 137.11 100.34 139.11 99.45 141.35 98.71 C 143.00 100.92 144.57 103.18 146.12 105.47 C 149.64 101.20 151.01 95.20 153.34 90.07 C 155.69 90.83 157.99 91.68 160.28 92.59 C 158.30 95.81 156.66 99.06 155.68 102.73 C 157.27 102.61 158.87 102.49 160.46 102.36 C 160.94 101.15 161.43 99.95 161.91 98.74 C 162.51 99.85 163.10 100.96 163.69 102.06 C 164.98 101.14 166.27 100.22 167.56 99.30 C 167.97 100.14 168.38 100.98 168.79 101.82 C 171.19 101.08 173.61 100.42 176.05 99.82 C 176.21 104.84 174.79 109.41 173.30 114.13 C 175.55 115.31 177.97 116.85 180.62 116.39 C 183.77 114.93 186.38 112.09 189.07 109.92 C 191.21 110.61 193.35 111.32 195.49 112.05 C 194.54 115.81 193.88 119.56 193.42 123.41 C 196.49 124.52 199.18 125.85 201.89 127.66 C 206.46 125.54 210.21 123.36 213.61 119.52 C 215.69 120.30 217.78 121.07 219.87 121.82 C 219.81 126.44 218.86 130.85 217.77 135.30 C 219.03 135.05 220.28 134.79 221.53 134.54 C 221.28 133.22 220.29 131.33 220.99 130.04 C 222.09 127.26 225.56 126.21 228.03 124.94 C 228.34 128.78 228.46 132.25 230.69 135.57 C 232.36 134.13 234.01 132.68 235.66 131.22 C 237.80 133.03 239.43 135.22 241.03 137.50 C 240.79 138.84 240.55 140.17 240.31 141.51 C 241.15 140.84 242.00 140.18 242.84 139.51 C 243.02 141.44 243.20 143.37 243.31 145.30 C 241.55 149.25 237.95 152.52 235.94 156.16 C 234.53 159.14 234.35 162.74 233.49 165.92 C 232.17 171.63 229.95 176.93 232.12 182.75 C 235.37 185.31 239.24 185.23 243.11 184.49 C 250.53 180.00 255.98 170.72 264.09 167.53 C 272.58 164.87 283.28 165.90 292.01 164.98 C 298.03 164.34 304.03 164.97 310.03 164.28 C 310.89 165.38 311.74 166.48 312.59 167.58 C 315.59 167.73 318.20 167.48 321.11 166.72 C 321.81 166.95 322.50 167.18 323.20 167.42 C 324.14 166.95 325.08 166.49 326.02 166.02 C 329.40 166.24 332.62 165.62 335.89 164.88 C 340.55 165.28 344.49 163.52 349.15 165.37 C 347.53 165.76 345.91 166.14 344.29 166.51 C 344.17 167.17 344.05 167.83 343.93 168.50 C 346.03 168.51 348.05 168.57 350.10 167.98 C 355.50 166.18 361.02 166.70 366.57 165.36 C 368.72 165.09 371.63 163.89 373.72 164.67 C 376.98 166.76 379.71 169.99 381.88 173.17 C 383.47 175.34 382.59 177.87 382.63 180.42 C 382.42 183.07 383.23 185.65 383.19 188.26 C 382.51 190.22 380.47 191.07 378.86 192.14 C 378.31 190.79 377.75 189.45 377.17 188.12 C 376.47 189.11 375.93 190.19 375.26 191.19 C 368.54 194.48 360.81 196.06 353.59 197.96 C 353.18 197.04 352.77 196.11 352.36 195.19 C 352.10 196.34 351.83 197.49 351.56 198.64 C 348.22 199.45 345.15 199.30 342.96 202.41 C 335.35 204.03 327.69 205.12 319.99 206.20 C 317.66 206.45 315.32 206.62 312.98 206.81 C 305.90 208.66 298.38 208.98 291.13 209.86 C 286.45 211.22 281.59 211.09 276.90 212.17 C 273.61 212.45 270.32 212.52 267.04 212.79 C 258.92 214.71 251.21 214.22 243.00 215.28 C 226.46 215.62 209.91 216.05 193.38 215.68 L 193.56 216.47 C 187.37 216.73 181.19 216.71 175.00 216.59 C 171.24 216.50 167.66 216.66 163.96 215.81 C 160.99 215.55 158.02 215.43 155.05 215.23 C 147.81 213.27 140.65 213.55 133.25 213.48 C 133.34 211.30 133.61 209.23 134.28 207.14 C 135.08 205.70 135.92 204.29 136.73 202.85 C 138.22 199.80 139.70 196.75 140.89 193.57 L 141.36 193.49 C 142.28 190.86 143.20 188.24 143.79 185.51 L 144.33 185.46 C 144.56 184.30 144.79 183.14 145.04 181.99 C 145.40 181.00 145.77 180.02 146.13 179.03 C 146.70 177.00 147.30 174.98 147.86 172.94 C 148.30 171.30 148.72 169.66 149.16 168.03 C 149.68 165.31 150.33 162.64 150.91 159.94 C 152.04 154.82 152.63 149.77 152.63 144.53 L 153.41 144.46 C 153.41 141.42 153.44 138.37 153.54 135.33 C 151.58 133.42 149.45 131.98 147.02 130.72 C 144.83 129.85 142.66 128.96 140.44 128.17 L 140.49 127.15 L 138.59 127.81 L 138.43 126.88 C 132.46 124.61 128.24 120.46 122.95 117.08 C 119.52 114.82 116.83 111.92 113.98 109.01 C 110.15 104.96 105.35 101.66 100.98 98.18 C 98.69 96.32 96.28 95.06 93.50 94.07 L 93.47 93.18 L 91.53 93.75 L 91.45 92.20 L 89.48 92.88 L 89.60 91.45 C 88.56 91.49 87.53 91.52 86.49 91.56 L 86.50 90.46 C 85.51 90.51 84.53 90.56 83.55 90.60 L 83.48 89.74 C 74.31 88.54 66.12 86.37 56.63 87.63 C 55.43 87.92 54.28 88.54 53.20 89.13 C 48.76 87.08 44.11 86.07 39.99 83.60 C 34.73 80.49 29.91 76.77 25.87 72.16 C 20.94 66.71 16.67 60.65 11.53 55.42 L 10.15 54.26 L 8.55 54.06 C 5.23 55.13 2.59 57.18 0.00 59.43 L 0.00 55.40 C 2.81 52.96 4.86 50.04 7.25 47.24 C 10.35 44.83 14.79 43.89 18.47 42.63 C 24.47 40.95 31.70 38.42 37.91 39.95 Z" fill="#181917" />
<path d="M 116.34 51.57 C 118.32 51.75 119.70 53.75 121.11 55.00 C 123.25 55.70 125.64 56.25 127.57 57.45 C 129.48 58.58 130.06 60.97 130.98 62.87 C 132.24 63.81 133.50 64.76 134.71 65.77 L 132.96 66.27 L 132.42 66.00 C 129.48 64.61 127.32 62.13 124.48 60.46 C 121.61 58.76 118.94 56.94 116.47 54.70 C 112.59 54.66 109.04 54.01 105.31 52.95 C 108.82 50.50 112.37 51.23 116.34 51.57 Z" fill="#414243" />
<path d="M 8.55 54.06 C 11.61 61.35 17.81 65.60 21.92 72.05 C 23.40 74.14 22.03 75.44 21.37 77.50 C 23.10 78.80 24.82 80.12 26.51 81.46 C 25.35 81.11 24.19 80.76 23.02 80.41 C 21.49 81.30 19.95 82.18 18.41 83.05 C 18.48 81.65 18.54 80.25 18.60 78.85 C 15.01 81.78 13.37 85.71 10.76 89.36 C 7.09 90.02 4.76 91.10 1.76 93.21 C 1.89 93.71 2.03 94.21 2.16 94.71 C 1.44 95.24 0.72 95.78 0.00 96.33 L 0.00 59.43 C 2.59 57.18 5.23 55.13 8.55 54.06 Z" fill="#5a4d85" />
<path d="M 8.55 54.06 L 10.15 54.26 L 11.53 55.42 C 16.67 60.65 20.94 66.71 25.87 72.16 C 29.91 76.77 34.73 80.49 39.99 83.60 C 44.11 86.07 48.76 87.08 53.20 89.13 C 46.95 92.94 40.45 96.32 34.16 100.08 C 22.70 105.68 12.05 111.84 0.00 116.16 L 0.00 96.33 C 0.72 95.78 1.44 95.24 2.16 94.71 C 2.03 94.21 1.89 93.71 1.76 93.21 C 4.76 91.10 7.09 90.02 10.76 89.36 C 13.37 85.71 15.01 81.78 18.60 78.85 C 18.54 80.25 18.48 81.65 18.41 83.05 C 19.95 82.18 21.49 81.30 23.02 80.41 C 24.19 80.76 25.35 81.11 26.51 81.46 C 24.82 80.12 23.10 78.80 21.37 77.50 C 22.03 75.44 23.40 74.14 21.92 72.05 C 17.81 65.60 11.61 61.35 8.55 54.06 Z" fill="#52447b" />
<path d="M 41.75 60.10 C 43.35 61.15 44.92 62.23 46.50 63.31 C 47.67 62.13 48.83 60.95 50.02 59.79 C 50.14 61.18 50.19 62.57 50.17 63.96 C 49.03 65.15 47.35 65.90 45.95 66.75 C 43.07 64.58 42.22 63.83 41.75 60.10 Z" fill="#333839" />
<path d="M 132.96 66.27 L 134.71 65.77 C 138.13 68.78 141.30 71.71 143.06 76.02 C 145.27 79.81 148.43 82.28 151.43 85.40 C 152.63 85.48 153.83 85.57 155.03 85.66 C 158.74 87.41 162.47 88.91 165.95 91.13 C 167.95 92.31 169.53 93.67 171.94 93.89 C 175.78 94.55 179.04 93.96 182.13 96.85 C 185.66 100.44 188.80 104.29 192.86 107.36 C 194.59 107.41 196.31 107.47 198.04 107.54 C 201.63 109.47 205.60 110.81 209.02 113.01 C 210.52 113.94 211.12 115.79 211.94 117.31 C 217.41 119.60 222.33 117.79 228.01 118.72 L 229.05 119.18 C 223.94 118.83 218.65 118.54 213.61 119.52 C 210.21 123.36 206.46 125.54 201.89 127.66 C 199.18 125.85 196.49 124.52 193.42 123.41 C 193.88 119.56 194.54 115.81 195.49 112.05 C 193.35 111.32 191.21 110.61 189.07 109.92 C 186.38 112.09 183.77 114.93 180.62 116.39 C 177.97 116.85 175.55 115.31 173.30 114.13 C 174.79 109.41 176.21 104.84 176.05 99.82 C 173.61 100.42 171.19 101.08 168.79 101.82 C 168.38 100.98 167.97 100.14 167.56 99.30 C 166.27 100.22 164.98 101.14 163.69 102.06 C 163.10 100.96 162.51 99.85 161.91 98.74 C 161.43 99.95 160.94 101.15 160.46 102.36 C 158.87 102.49 157.27 102.61 155.68 102.73 C 156.66 99.06 158.30 95.81 160.28 92.59 C 157.99 91.68 155.69 90.83 153.34 90.07 C 151.01 95.20 149.64 101.20 146.12 105.47 C 144.57 103.18 143.00 100.92 141.35 98.71 C 139.11 99.45 137.11 100.34 135.11 101.58 C 135.31 96.32 136.01 91.12 136.55 85.89 C 137.07 81.30 136.83 77.61 134.56 73.48 C 135.78 73.11 137.01 72.74 138.24 72.36 C 136.66 70.17 135.00 68.06 132.96 66.27 Z" fill="#252623" />
<path d="M 77.40 78.20 C 80.12 77.96 82.64 77.80 85.19 78.93 C 83.82 79.57 82.42 80.07 80.98 80.43 C 79.51 80.40 78.48 79.04 77.40 78.20 Z" fill="#2f3232" />
<path d="M 56.63 87.63 C 66.12 86.37 74.31 88.54 83.48 89.74 L 83.55 90.60 C 84.53 90.56 85.51 90.51 86.50 90.46 L 86.49 91.56 C 87.53 91.52 88.56 91.49 89.60 91.45 L 89.48 92.88 L 91.45 92.20 L 91.53 93.75 L 93.47 93.18 L 93.50 94.07 C 96.28 95.06 98.69 96.32 100.98 98.18 C 105.35 101.66 110.15 104.96 113.98 109.01 C 116.83 111.92 119.52 114.82 122.95 117.08 C 128.24 120.46 132.46 124.61 138.43 126.88 L 138.59 127.81 L 140.49 127.15 L 140.44 128.17 C 142.66 128.96 144.83 129.85 147.02 130.72 C 149.45 131.98 151.58 133.42 153.54 135.33 C 153.44 138.37 153.41 141.42 153.41 144.46 L 152.63 144.53 C 152.63 149.77 152.04 154.82 150.91 159.94 C 150.33 162.64 149.68 165.31 149.16 168.03 C 148.72 169.66 148.30 171.30 147.86 172.94 C 147.30 174.98 146.70 177.00 146.13 179.03 C 145.77 180.02 145.40 181.00 145.04 181.99 C 144.79 183.14 144.56 184.30 144.33 185.46 L 143.79 185.51 C 143.20 188.24 142.28 190.86 141.36 193.49 L 140.89 193.57 C 139.70 196.75 138.22 199.80 136.73 202.85 C 135.92 204.29 135.08 205.70 134.28 207.14 C 131.95 208.31 130.20 210.09 128.46 211.98 C 130.05 212.51 131.63 213.03 133.25 213.48 C 140.65 213.55 147.81 213.27 155.05 215.23 C 158.02 215.43 160.99 215.55 163.96 215.81 C 167.66 216.66 171.24 216.50 175.00 216.59 C 181.19 216.71 187.37 216.73 193.56 216.47 L 193.38 215.68 C 209.91 216.05 226.46 215.62 243.00 215.28 C 251.21 214.22 258.92 214.71 267.04 212.79 C 270.32 212.52 273.61 212.45 276.90 212.17 C 281.59 211.09 286.45 211.22 291.13 209.86 C 298.38 208.98 305.90 208.66 312.98 206.81 C 315.32 206.62 317.66 206.45 319.99 206.20 C 327.69 205.12 335.35 204.03 342.96 202.41 C 352.34 201.08 361.73 199.00 370.96 196.86 C 373.67 196.32 376.34 195.69 379.06 195.22 C 383.82 193.78 388.54 192.21 393.11 190.24 C 394.30 189.79 395.49 189.36 396.68 188.93 C 396.83 187.96 396.98 186.98 397.13 186.01 C 399.71 188.44 402.21 190.70 404.03 193.79 C 402.22 196.23 400.56 198.46 397.60 199.57 C 390.16 202.55 381.90 203.43 374.28 206.14 C 368.84 208.09 363.10 207.60 357.61 209.41 C 351.94 211.27 346.04 210.57 340.41 212.59 C 336.49 213.93 332.47 214.27 328.36 214.45 C 321.36 214.72 314.95 217.31 307.98 217.80 C 302.91 218.18 297.91 218.63 292.98 219.90 C 287.04 221.41 281.07 221.58 274.99 221.91 C 267.96 222.26 261.06 223.52 254.01 223.68 C 245.63 223.85 237.39 225.27 229.00 225.19 C 218.91 225.33 209.13 227.04 198.99 225.78 C 193.24 225.37 187.90 226.55 182.14 226.42 C 178.97 226.34 175.80 226.26 172.62 226.34 C 166.69 226.34 160.19 226.96 154.04 226.27 C 150.32 225.81 146.80 224.74 143.01 224.64 C 137.63 224.45 132.66 225.09 127.44 223.34 C 119.18 220.45 110.92 221.56 102.36 219.51 C 96.29 217.90 90.29 218.42 84.11 217.68 C 79.75 217.20 75.36 217.53 71.00 217.13 C 66.77 216.74 63.35 215.32 59.21 215.58 C 54.95 215.81 50.28 216.78 45.98 216.26 C 42.16 215.71 38.99 213.99 35.00 214.26 C 29.96 214.46 25.04 214.86 20.04 213.90 C 13.23 212.51 6.74 214.33 0.00 212.24 L 0.00 170.36 C 9.07 172.78 18.27 174.60 27.27 177.22 C 31.20 178.12 35.18 178.65 39.05 179.83 C 49.00 181.50 58.63 184.29 68.68 185.49 C 75.08 186.81 81.48 186.63 87.97 186.31 C 95.61 184.50 102.52 181.86 107.64 175.61 C 111.52 170.97 110.89 163.69 110.79 157.99 C 110.78 151.97 107.85 147.09 104.91 142.04 C 100.87 136.38 96.31 130.49 90.79 126.23 C 87.72 123.83 84.66 121.41 81.59 118.99 C 78.79 116.77 76.04 114.71 72.46 113.93 C 72.16 119.06 73.69 123.89 73.68 129.00 C 73.74 134.98 73.88 141.14 73.25 147.08 C 70.85 150.85 67.79 153.93 63.14 154.48 C 53.73 155.11 44.33 154.76 35.03 153.13 C 32.05 152.34 29.05 151.63 25.99 151.16 C 19.90 149.81 13.73 148.89 7.67 147.39 C 5.15 146.75 2.59 146.39 0.00 146.12 L 0.00 116.16 C 12.05 111.84 22.70 105.68 34.16 100.08 C 40.45 96.32 46.95 92.94 53.20 89.13 C 54.28 88.54 55.43 87.92 56.63 87.63 Z" fill="#ececeb" />
<path d="M 472.44 93.35 C 474.05 93.21 475.68 93.20 477.30 93.16 C 479.40 100.55 481.31 107.99 483.40 115.38 C 483.79 108.01 483.46 100.60 483.57 93.22 C 485.29 93.23 487.01 93.24 488.72 93.25 C 488.73 105.99 488.68 118.74 488.75 131.48 C 487.08 131.50 485.41 131.51 483.74 131.53 C 481.67 124.14 479.74 116.71 477.66 109.32 C 477.28 116.70 477.57 124.12 477.51 131.51 C 475.79 131.51 474.07 131.52 472.35 131.53 C 472.43 118.81 472.21 106.05 472.44 93.35 Z" fill="#020202" />
<path d="M 492.80 93.27 C 494.68 93.26 496.57 93.24 498.45 93.21 C 498.48 105.98 498.44 118.75 498.47 131.52 C 496.58 131.51 494.68 131.49 492.78 131.47 C 492.82 118.74 492.79 106.01 492.80 93.27 Z" fill="#010101" />
<path d="M 513.58 93.37 C 515.36 93.17 517.17 93.23 518.96 93.20 C 517.25 97.44 515.50 101.65 513.78 105.88 C 515.81 114.41 517.64 122.99 519.68 131.52 C 517.82 131.51 515.97 131.49 514.11 131.47 C 512.79 125.57 511.40 119.68 510.00 113.79 C 507.20 119.13 508.69 125.39 508.37 131.51 C 506.47 131.50 504.57 131.50 502.67 131.50 C 502.70 118.75 502.69 106.00 502.68 93.25 C 504.57 93.25 506.46 93.25 508.35 93.24 C 508.36 97.81 508.26 102.40 508.47 106.96 C 510.27 102.48 511.52 97.73 513.58 93.37 Z" fill="#020202" />
<path d="M 522.33 93.34 C 526.58 93.10 530.86 93.31 535.11 93.27 C 535.12 95.16 535.12 97.04 535.12 98.93 C 532.68 99.00 530.24 99.06 527.79 99.10 C 527.80 102.43 527.79 105.76 527.80 109.08 C 529.57 109.10 531.35 109.11 533.12 109.13 C 533.09 111.17 533.06 113.21 533.02 115.25 C 531.27 115.24 529.53 115.24 527.79 115.23 C 527.80 118.72 527.80 122.20 527.79 125.69 C 530.23 125.69 532.67 125.70 535.11 125.70 C 535.12 127.63 535.12 129.56 535.12 131.49 C 530.82 131.51 526.51 131.51 522.20 131.49 C 522.36 118.79 522.09 106.03 522.33 93.34 Z" fill="#010101" />
<path d="M 550.54 93.34 C 552.78 93.15 555.05 93.24 557.30 93.23 C 559.24 105.98 561.12 118.74 563.10 131.49 C 561.27 131.50 559.44 131.51 557.61 131.52 C 557.28 128.89 556.91 126.27 556.54 123.65 C 554.74 123.66 552.94 123.67 551.14 123.68 C 550.79 126.28 550.46 128.89 550.14 131.49 C 548.30 131.50 546.45 131.50 544.60 131.51 C 546.71 118.82 548.28 105.99 550.54 93.34 Z" fill="#010101" />
<path d="M 565.69 93.24 C 567.57 93.25 569.46 93.24 571.35 93.24 C 571.36 106.00 571.33 118.75 571.36 131.51 C 569.46 131.50 567.57 131.50 565.67 131.50 C 565.71 118.75 565.68 106.00 565.69 93.24 Z" fill="#020202" />
<path d="M 577.00 93.23 C 580.40 93.27 584.97 92.81 587.63 95.35 C 590.76 98.07 590.89 103.23 590.45 107.04 C 590.21 109.49 588.95 111.36 587.63 113.35 C 588.78 119.40 589.94 125.45 591.16 131.49 C 589.28 131.50 587.40 131.51 585.52 131.52 C 584.66 127.02 583.92 122.49 583.09 117.97 C 582.84 116.33 582.44 115.79 581.27 114.68 C 580.96 120.27 581.19 125.88 581.13 131.48 C 579.23 131.50 577.34 131.51 575.45 131.53 C 575.47 119.68 575.47 107.82 575.45 95.97 C 575.77 94.39 574.64 92.93 577.00 93.23 Z" fill="#010101" />
<path d="M 603.58 93.22 C 605.47 93.24 607.35 93.25 609.24 93.26 C 609.23 103.18 609.24 113.09 609.25 123.01 C 609.17 125.64 609.12 128.18 607.06 130.10 C 605.51 131.71 602.69 131.68 600.60 132.09 C 600.57 130.37 600.56 128.65 600.54 126.92 C 601.49 126.39 602.40 125.80 603.27 125.17 C 603.61 123.84 603.57 122.38 603.60 121.02 C 603.56 111.76 603.57 102.49 603.58 93.22 Z" fill="#010101" />
<path d="M 620.00 92.78 C 624.35 92.59 627.32 96.14 627.59 100.26 C 627.87 106.49 627.59 112.76 627.71 119.00 C 627.64 122.33 628.10 126.18 626.02 129.04 C 623.30 133.21 615.90 132.82 613.85 128.16 C 612.01 124.35 612.87 119.15 612.69 115.00 C 612.80 109.99 612.46 104.92 612.86 99.93 C 613.29 96.06 615.88 92.81 620.00 92.78 Z" fill="#020202" />
<path d="M 633.00 93.23 C 636.40 93.27 640.97 92.81 643.63 95.34 C 646.76 98.07 646.89 103.23 646.45 107.04 C 646.21 109.49 644.95 111.36 643.63 113.35 C 644.78 119.40 645.94 125.45 647.16 131.49 C 645.28 131.50 643.40 131.51 641.52 131.52 C 640.66 127.01 639.92 122.48 639.09 117.97 C 638.84 116.33 638.44 115.79 637.27 114.68 C 636.97 120.27 637.19 125.89 637.13 131.48 C 635.23 131.50 633.34 131.51 631.45 131.53 C 631.47 119.68 631.47 107.82 631.45 95.97 C 631.77 94.39 630.64 92.93 633.00 93.23 Z" fill="#010101" />
<path d="M 650.45 93.32 C 653.83 93.18 657.65 92.98 660.88 94.11 C 664.24 95.48 665.16 98.72 665.54 102.01 C 666.07 108.31 665.99 114.71 665.70 121.02 C 665.44 124.28 665.03 128.03 662.05 130.01 C 658.86 131.99 653.98 131.39 650.35 131.55 C 650.43 118.82 650.21 106.04 650.45 93.32 Z" fill="#010101" />
<path d="M 673.89 93.26 C 676.19 93.26 678.49 93.25 680.79 93.25 C 682.76 106.00 684.61 118.78 686.62 131.52 C 684.76 131.51 682.90 131.49 681.04 131.46 C 680.73 128.87 680.42 126.27 680.11 123.68 C 678.30 123.67 676.48 123.66 674.67 123.66 C 674.33 126.28 673.96 128.90 673.60 131.52 C 671.77 131.51 669.95 131.50 668.13 131.49 C 670.08 118.75 672.02 106.01 673.89 93.26 Z" fill="#010101" />
<path d="M 689.20 93.35 C 690.82 93.22 692.46 93.22 694.08 93.19 C 696.13 100.59 698.06 108.04 700.23 115.41 C 700.50 108.02 700.25 100.61 700.36 93.22 C 702.07 93.23 703.78 93.23 705.49 93.23 C 705.51 105.99 705.47 118.75 705.51 131.51 C 703.83 131.51 702.16 131.52 700.49 131.52 C 698.42 124.15 696.46 116.74 694.46 109.35 C 694.04 116.72 694.36 124.13 694.27 131.50 C 692.54 131.50 690.81 131.50 689.08 131.49 C 689.24 118.79 688.97 106.04 689.20 93.35 Z" fill="#020202" />
<path d="M 619.37 98.49 C 621.01 97.80 621.44 98.57 621.90 100.04 C 622.36 103.31 622.08 106.70 622.13 110.00 C 621.98 114.94 622.48 120.01 621.87 124.91 C 621.60 125.99 620.95 126.55 619.93 126.57 C 618.13 125.76 618.48 123.66 618.34 122.04 C 618.35 115.69 618.37 109.33 618.34 102.97 C 618.47 101.38 618.09 99.67 619.37 98.49 Z" fill="#fefefe" />
<path d="M 581.24 98.33 C 586.78 99.75 586.77 109.16 581.23 110.60 C 581.07 106.51 581.06 102.42 581.24 98.33 Z" fill="#ffffff" />
<path d="M 637.24 98.33 C 642.78 99.75 642.77 109.16 637.23 110.60 C 637.07 106.51 637.06 102.42 637.24 98.33 Z" fill="#ffffff" />
<path d="M 655.95 98.42 C 657.35 99.24 659.34 99.24 659.58 101.15 C 660.50 105.62 660.07 110.45 660.18 115.00 C 660.11 118.16 660.35 121.93 659.10 124.89 C 658.08 125.40 657.03 125.85 655.95 126.25 C 655.88 116.98 655.89 107.69 655.95 98.42 Z" fill="#ffffff" />
<path d="M 553.90 104.36 C 554.73 108.78 555.17 113.29 555.77 117.75 C 554.50 117.73 553.22 117.71 551.95 117.69 C 552.57 113.22 552.95 108.78 553.90 104.36 Z" fill="#ffffff" />
<path d="M 677.22 104.20 C 678.21 108.67 678.62 113.19 679.32 117.70 C 678.02 117.72 676.72 117.74 675.42 117.77 C 676.10 113.26 676.56 108.72 677.22 104.20 Z" fill="#ffffff" />
<path d="M 72.46 113.93 C 76.04 114.71 78.79 116.77 81.59 118.99 C 80.13 118.57 78.66 118.16 77.23 117.63 C 76.25 117.16 75.27 116.69 74.30 116.20 C 74.34 117.40 74.39 118.59 74.43 119.79 C 74.48 120.95 74.55 122.10 74.63 123.26 C 75.09 129.38 76.21 135.88 75.34 142.00 C 75.08 143.89 74.21 145.47 73.25 147.08 C 73.88 141.14 73.74 134.98 73.68 129.00 C 73.69 123.89 72.16 119.06 72.46 113.93 Z" fill="#73706a" />
<path d="M 74.30 116.20 C 75.27 116.69 76.25 117.16 77.23 117.63 C 78.66 118.16 80.13 118.57 81.59 118.99 C 84.66 121.41 87.72 123.83 90.79 126.23 C 96.31 130.49 100.87 136.38 104.91 142.04 C 107.85 147.09 110.78 151.97 110.79 157.99 C 110.89 163.69 111.52 170.97 107.64 175.61 C 102.52 181.86 95.61 184.50 87.97 186.31 C 81.48 186.63 75.08 186.81 68.68 185.49 C 58.63 184.29 49.00 181.50 39.05 179.83 C 35.18 178.65 31.20 178.12 27.27 177.22 C 18.27 174.60 9.07 172.78 0.00 170.36 L 0.00 146.12 C 2.59 146.39 5.15 146.75 7.67 147.39 C 13.73 148.89 19.90 149.81 25.99 151.16 C 29.05 151.63 32.05 152.34 35.03 153.13 C 44.33 154.76 53.73 155.11 63.14 154.48 C 67.79 153.93 70.85 150.85 73.25 147.08 C 74.21 145.47 75.08 143.89 75.34 142.00 C 76.21 135.88 75.09 129.38 74.63 123.26 C 78.05 124.62 79.81 127.21 81.99 129.97 C 83.58 132.08 85.75 132.91 88.01 134.08 C 91.97 136.01 95.05 139.19 99.03 141.12 C 96.70 136.78 93.52 133.36 89.64 130.37 C 85.47 127.07 81.68 123.76 76.99 121.19 C 76.14 120.72 75.29 120.25 74.43 119.79 C 74.39 118.59 74.34 117.40 74.30 116.20 Z" fill="#2d2f2c" />
<path d="M 213.61 119.52 C 218.65 118.54 223.94 118.83 229.05 119.18 C 231.63 120.40 234.23 121.68 235.69 124.24 C 237.09 126.57 238.49 128.88 240.06 131.09 C 241.16 133.63 242.41 135.92 244.29 137.97 C 244.25 140.47 244.16 142.92 243.31 145.30 C 243.20 143.37 243.02 141.44 242.84 139.51 C 242.00 140.18 241.15 140.84 240.31 141.51 C 240.55 140.17 240.79 138.84 241.03 137.50 C 239.43 135.22 237.80 133.03 235.66 131.22 C 234.01 132.68 232.36 134.13 230.69 135.57 C 228.46 132.25 228.34 128.78 228.03 124.94 C 225.56 126.21 222.09 127.26 220.99 130.04 C 220.29 131.33 221.28 133.22 221.53 134.54 C 220.28 134.79 219.03 135.05 217.77 135.30 C 218.86 130.85 219.81 126.44 219.87 121.82 C 217.78 121.07 215.69 120.30 213.61 119.52 Z" fill="#2b2b29" />
<path d="M 74.43 119.79 C 75.29 120.25 76.14 120.72 76.99 121.19 C 81.68 123.76 85.47 127.07 89.64 130.37 C 93.52 133.36 96.70 136.78 99.03 141.12 C 95.05 139.19 91.97 136.01 88.01 134.08 C 85.75 132.91 83.58 132.08 81.99 129.97 C 79.81 127.21 78.05 124.62 74.63 123.26 C 74.55 122.10 74.48 120.95 74.43 119.79 Z" fill="#141412" />
<path d="M 240.06 131.09 C 242.60 134.10 244.25 137.07 248.40 138.01 C 266.19 143.26 283.99 147.48 302.48 149.23 C 312.36 150.14 322.14 151.72 331.96 153.13 C 339.10 153.53 346.14 154.60 353.24 155.30 C 356.35 155.63 358.90 154.29 362.05 153.90 C 365.80 153.57 369.57 154.18 372.62 156.50 C 367.97 155.52 363.68 155.12 358.92 155.20 C 359.89 155.57 360.85 155.93 361.81 156.29 C 361.83 156.99 361.85 157.70 361.86 158.40 C 358.13 158.31 354.39 158.47 350.66 158.39 C 345.27 158.27 340.24 156.43 334.84 156.41 C 330.01 156.33 325.28 155.92 320.65 154.45 C 316.26 152.93 312.08 154.38 307.96 151.81 C 303.08 152.45 298.08 152.94 293.15 152.90 C 283.87 152.26 274.76 148.02 266.68 145.24 C 259.09 143.63 251.91 140.89 244.60 138.35 L 244.29 137.97 C 242.41 135.92 241.16 133.63 240.06 131.09 Z" fill="#8978a7" />
<path d="M 244.29 137.97 L 244.60 138.35 L 245.13 139.82 C 245.24 141.79 245.28 143.77 245.35 145.74 C 246.67 147.11 248.13 148.50 249.17 150.08 C 249.88 152.86 248.92 155.83 246.73 157.68 C 242.42 161.55 238.46 165.32 235.56 170.43 C 233.44 174.26 233.02 178.51 232.12 182.75 C 229.95 176.93 232.17 171.63 233.49 165.92 C 234.35 162.74 234.53 159.14 235.94 156.16 C 237.95 152.52 241.55 149.25 243.31 145.30 C 244.16 142.92 244.25 140.47 244.29 137.97 Z" fill="#4a3d6c" />
<path d="M 244.60 138.35 C 251.91 140.89 259.09 143.63 266.68 145.24 C 274.76 148.02 283.87 152.26 293.15 152.90 C 298.08 152.94 303.08 152.45 307.96 151.81 C 312.08 154.38 316.26 152.93 320.65 154.45 C 325.28 155.92 330.01 156.33 334.84 156.41 C 340.24 156.43 345.27 158.27 350.66 158.39 C 354.39 158.47 358.13 158.31 361.86 158.40 C 351.50 162.12 341.48 161.80 330.72 163.06 C 324.21 163.84 317.72 163.17 311.22 163.84 C 315.11 162.22 319.97 162.92 324.17 162.51 C 319.81 162.12 315.47 162.19 311.10 162.34 C 305.35 162.48 299.84 161.27 294.08 162.20 C 289.42 162.90 285.86 159.79 281.05 160.29 C 275.01 160.79 268.84 160.02 263.05 158.29 C 264.49 156.96 265.89 155.74 267.05 154.15 C 266.34 153.13 265.36 152.56 264.10 152.43 C 263.42 153.46 262.76 154.52 262.13 155.60 C 260.77 152.57 259.39 148.49 256.58 146.52 C 253.03 143.95 248.81 142.25 245.13 139.82 L 244.60 138.35 Z" fill="#6d5c92" />
<path d="M 245.13 139.82 C 248.81 142.25 253.03 143.95 256.58 146.52 C 259.39 148.49 260.77 152.57 262.13 155.60 C 262.76 154.52 263.42 153.46 264.10 152.43 C 265.36 152.56 266.34 153.13 267.05 154.15 C 265.89 155.74 264.49 156.96 263.05 158.29 C 268.84 160.02 275.01 160.79 281.05 160.29 C 285.86 159.79 289.42 162.90 294.08 162.20 C 299.84 161.27 305.35 162.48 311.10 162.34 C 315.47 162.19 319.81 162.12 324.17 162.51 C 319.97 162.92 315.11 162.22 311.22 163.84 L 310.03 164.28 C 304.03 164.97 298.03 164.34 292.01 164.98 C 283.28 165.90 272.58 164.87 264.09 167.53 C 255.98 170.72 250.53 180.00 243.11 184.49 C 239.24 185.23 235.37 185.31 232.12 182.75 C 233.02 178.51 233.44 174.26 235.56 170.43 C 238.46 165.32 242.42 161.55 246.73 157.68 C 248.92 155.83 249.88 152.86 249.17 150.08 C 248.13 148.50 246.67 147.11 245.35 145.74 C 245.28 143.77 245.24 141.79 245.13 139.82 Z" fill="#5a4b83" />
<path d="M 619.37 147.80 C 619.64 160.70 619.40 173.62 619.50 186.52 C 617.61 186.51 615.71 186.50 613.82 186.49 C 613.85 176.52 613.78 166.54 613.87 156.57 C 612.60 156.55 611.34 156.53 610.07 156.50 C 610.12 155.41 610.17 154.32 610.22 153.23 C 613.93 151.87 615.36 148.21 619.37 147.80 Z" fill="#010101" />
<path d="M 631.68 148.29 C 633.57 148.30 635.45 148.29 637.34 148.29 C 637.31 159.29 637.39 170.29 637.30 181.28 C 639.78 181.31 642.26 181.31 644.74 181.32 C 644.75 183.05 644.75 184.77 644.77 186.50 C 640.40 186.50 636.03 186.50 631.67 186.50 C 631.70 173.77 631.67 161.03 631.68 148.29 Z" fill="#020202" />
<path d="M 654.00 147.83 C 658.28 147.64 661.25 151.12 661.56 155.17 C 661.88 161.43 661.57 167.73 661.70 174.00 C 661.63 177.33 662.09 181.17 660.01 184.03 C 657.28 188.21 649.91 187.82 647.84 183.16 C 646.01 179.35 646.88 174.16 646.69 170.00 C 646.80 164.99 646.46 159.92 646.86 154.92 C 647.31 151.05 649.89 147.87 654.00 147.83 Z" fill="#020202" />
<path d="M 664.02 148.29 C 665.77 148.31 667.51 148.32 669.26 148.34 C 670.07 155.58 670.62 162.89 671.86 170.06 C 672.87 162.82 673.54 155.52 674.52 148.27 C 675.86 148.28 677.20 148.28 678.54 148.29 C 679.51 155.52 680.22 162.80 681.19 170.03 C 682.45 162.84 682.96 155.51 683.85 148.26 C 685.59 148.29 687.33 148.31 689.07 148.34 C 687.34 161.05 685.60 173.75 683.95 186.47 C 682.49 186.49 681.02 186.51 679.56 186.53 C 678.56 179.63 677.51 172.73 676.67 165.80 C 675.39 172.68 674.55 179.60 673.50 186.53 C 672.04 186.51 670.57 186.49 669.10 186.47 C 667.49 173.73 665.66 161.03 664.02 148.29 Z" fill="#010101" />
<path d="M 653.38 153.50 C 654.91 152.88 655.47 153.63 655.87 155.04 C 656.36 158.30 656.07 161.71 656.12 165.00 C 655.96 169.94 656.47 175.01 655.85 179.90 C 655.08 182.38 652.95 181.90 652.50 179.59 C 652.11 172.75 652.49 165.84 652.32 158.99 C 652.46 157.28 651.96 154.74 653.38 153.50 Z" fill="#ffffff" />
<path d="M 358.92 155.20 C 363.68 155.12 367.97 155.52 372.62 156.50 C 383.54 162.97 389.41 172.97 395.10 183.90 C 395.89 185.51 396.35 187.18 396.68 188.93 C 395.49 189.36 394.30 189.79 393.11 190.24 C 388.54 192.21 383.82 193.78 379.06 195.22 C 376.34 195.69 373.67 196.32 370.96 196.86 C 361.73 199.00 352.34 201.08 342.96 202.41 C 345.15 199.30 348.22 199.45 351.56 198.64 C 351.83 197.49 352.10 196.34 352.36 195.19 C 352.77 196.11 353.18 197.04 353.59 197.96 C 360.81 196.06 368.54 194.48 375.26 191.19 C 375.93 190.19 376.47 189.11 377.17 188.12 C 377.75 189.45 378.31 190.79 378.86 192.14 C 380.47 191.07 382.51 190.22 383.19 188.26 C 383.23 185.65 382.42 183.07 382.63 180.42 C 382.59 177.87 383.47 175.34 381.88 173.17 C 379.71 169.99 376.98 166.76 373.72 164.67 C 371.63 163.89 368.72 165.09 366.57 165.36 C 361.02 166.70 355.50 166.18 350.10 167.98 C 348.05 168.57 346.03 168.51 343.93 168.50 C 344.05 167.83 344.17 167.17 344.29 166.51 C 345.91 166.14 347.53 165.76 349.15 165.37 C 344.49 163.52 340.55 165.28 335.89 164.88 C 332.62 165.62 329.40 166.24 326.02 166.02 C 325.08 166.49 324.14 166.95 323.20 167.42 C 322.50 167.18 321.81 166.95 321.11 166.72 C 318.20 167.48 315.59 167.73 312.59 167.58 C 311.74 166.48 310.89 165.38 310.03 164.28 L 311.22 163.84 C 317.72 163.17 324.21 163.84 330.72 163.06 C 341.48 161.80 351.50 162.12 361.86 158.40 C 361.85 157.70 361.83 156.99 361.81 156.29 C 360.85 155.93 359.89 155.57 358.92 155.20 Z" fill="#252724" />
<path d="M 810.00 164.40 L 810.00 256.00 L 270.52 256.00 C 279.90 254.98 289.32 253.95 298.57 252.08 C 305.59 250.76 312.62 249.73 319.51 247.78 C 326.37 245.72 333.48 245.17 340.33 243.08 C 355.74 239.68 373.11 237.54 387.83 231.61 C 394.25 228.54 401.67 224.62 404.24 217.51 C 405.73 214.17 405.68 210.79 405.42 207.22 C 405.90 207.00 406.39 206.78 406.87 206.56 C 406.41 202.45 405.45 198.45 404.36 194.47 C 434.79 207.18 467.20 219.56 499.77 225.17 C 523.85 229.47 548.91 229.50 573.21 227.18 C 607.98 223.62 643.15 215.03 676.80 205.72 C 708.71 196.75 740.46 187.24 771.95 176.86 C 784.67 172.83 797.40 168.79 810.00 164.40 Z" fill="#675996" />
<path d="M 404.03 193.79 L 404.36 194.47 C 405.45 198.45 406.41 202.45 406.87 206.56 C 406.39 206.78 405.90 207.00 405.42 207.22 C 403.12 208.26 400.83 209.27 398.56 210.36 C 398.04 209.12 397.52 207.87 397.01 206.63 C 398.12 206.52 399.24 206.41 400.35 206.29 C 399.06 205.85 397.55 205.06 396.18 205.29 C 391.84 205.88 387.68 207.58 383.34 208.36 C 375.45 209.74 367.59 211.33 359.70 212.77 C 347.58 215.74 335.29 217.36 322.96 219.17 C 316.27 220.12 309.68 221.63 302.99 222.58 C 285.99 224.36 269.16 227.17 252.06 228.14 C 251.81 227.05 251.55 225.97 251.29 224.88 C 243.47 224.98 235.88 226.93 228.01 226.71 C 219.29 226.38 210.73 227.77 202.01 226.93 C 194.53 226.15 187.41 228.34 179.98 227.82 C 177.43 227.64 175.08 226.93 172.62 226.34 C 175.80 226.26 178.97 226.34 182.14 226.42 C 187.90 226.55 193.24 225.37 198.99 225.78 C 209.13 227.04 218.91 225.33 229.00 225.19 C 237.39 225.27 245.63 223.85 254.01 223.68 C 261.06 223.52 267.96 222.26 274.99 221.91 C 281.07 221.58 287.04 221.41 292.98 219.90 C 297.91 218.63 302.91 218.18 307.98 217.80 C 314.95 217.31 321.36 214.72 328.36 214.45 C 332.47 214.27 336.49 213.93 340.41 212.59 C 346.04 210.57 351.94 211.27 357.61 209.41 C 363.10 207.60 368.84 208.09 374.28 206.14 C 381.90 203.43 390.16 202.55 397.60 199.57 C 400.56 198.46 402.22 196.23 404.03 193.79 Z" fill="#dcdddf" />
<path d="M 396.18 205.29 C 397.55 205.06 399.06 205.85 400.35 206.29 C 399.24 206.41 398.12 206.52 397.01 206.63 C 397.52 207.87 398.04 209.12 398.56 210.36 C 392.11 213.70 385.37 216.57 378.42 218.71 C 365.59 223.66 352.22 227.02 339.26 231.65 C 327.81 234.63 316.54 238.42 304.92 240.57 C 297.09 242.41 288.70 244.68 280.64 244.71 C 282.20 244.88 283.76 245.04 285.32 245.22 C 276.17 245.57 267.07 247.33 257.99 248.41 C 244.37 249.98 230.65 251.00 216.96 251.78 C 209.66 253.00 202.35 252.50 195.00 253.18 C 184.07 253.41 172.92 253.36 161.98 253.10 C 154.71 252.45 147.42 252.98 140.20 251.98 C 134.79 251.19 129.44 251.81 124.03 251.05 C 119.92 250.41 115.79 250.28 111.65 250.17 C 93.40 248.04 74.38 248.78 56.00 248.59 C 41.64 248.88 27.27 248.31 12.91 248.61 C 20.45 249.13 27.21 247.92 34.57 249.72 C 27.72 249.46 20.86 249.61 14.01 249.56 C 9.32 249.48 4.64 250.43 0.00 249.93 L 0.00 216.59 C 9.74 216.50 19.46 216.61 29.17 217.38 C 43.77 218.08 58.35 218.88 72.91 220.21 C 76.95 220.76 80.93 220.92 85.00 220.85 C 90.49 220.69 95.54 222.51 100.99 222.70 C 109.90 223.17 118.92 224.74 127.72 226.23 C 136.43 227.60 145.19 228.50 153.99 229.00 C 172.01 230.89 190.90 230.16 209.00 229.79 C 217.37 229.84 225.66 230.25 233.99 229.13 C 240.00 228.29 246.02 228.37 252.06 228.14 C 269.16 227.17 285.99 224.36 302.99 222.58 C 309.68 221.63 316.27 220.12 322.96 219.17 C 335.29 217.36 347.58 215.74 359.70 212.77 C 367.59 211.33 375.45 209.74 383.34 208.36 C 387.68 207.58 391.84 205.88 396.18 205.29 Z" fill="#e9ebea" />
<path d="M 134.28 207.14 C 133.61 209.23 133.34 211.30 133.25 213.48 C 131.63 213.03 130.05 212.51 128.46 211.98 C 130.20 210.09 131.95 208.31 134.28 207.14 Z" fill="#9f9d9a" />
<path d="M 405.42 207.22 C 405.68 210.79 405.73 214.17 404.24 217.51 C 401.67 224.62 394.25 228.54 387.83 231.61 C 373.11 237.54 355.74 239.68 340.33 243.08 C 333.48 245.17 326.37 245.72 319.51 247.78 C 312.62 249.73 305.59 250.76 298.57 252.08 C 289.32 253.95 279.90 254.98 270.52 256.00 L 258.74 256.00 C 258.64 254.05 258.53 252.11 258.43 250.16 C 257.15 250.29 255.87 250.42 254.60 250.55 C 254.66 252.37 254.73 254.18 254.79 256.00 L 81.03 256.00 C 81.60 254.28 82.08 252.52 82.57 250.78 C 80.88 250.61 79.19 250.43 77.50 250.26 C 88.88 250.11 100.29 250.72 111.65 250.17 C 115.79 250.28 119.92 250.41 124.03 251.05 C 129.44 251.81 134.79 251.19 140.20 251.98 C 147.42 252.98 154.71 252.45 161.98 253.10 C 172.92 253.36 184.07 253.41 195.00 253.18 C 202.35 252.50 209.66 253.00 216.96 251.78 C 230.65 251.00 244.37 249.98 257.99 248.41 C 267.07 247.33 276.17 245.57 285.32 245.22 C 283.76 245.04 282.20 244.88 280.64 244.71 C 288.70 244.68 297.09 242.41 304.92 240.57 C 316.54 238.42 327.81 234.63 339.26 231.65 C 352.22 227.02 365.59 223.66 378.42 218.71 C 385.37 216.57 392.11 213.70 398.56 210.36 C 400.83 209.27 403.12 208.26 405.42 207.22 Z" fill="#3f3854" />
<path d="M 0.00 212.24 C 6.74 214.33 13.23 212.51 20.04 213.90 C 25.04 214.86 29.96 214.46 35.00 214.26 C 38.99 213.99 42.16 215.71 45.98 216.26 C 50.28 216.78 54.95 215.81 59.21 215.58 C 63.35 215.32 66.77 216.74 71.00 217.13 C 75.36 217.53 79.75 217.20 84.11 217.68 C 90.29 218.42 96.29 217.90 102.36 219.51 C 110.92 221.56 119.18 220.45 127.44 223.34 C 132.66 225.09 137.63 224.45 143.01 224.64 C 146.80 224.74 150.32 225.81 154.04 226.27 C 160.19 226.96 166.69 226.34 172.62 226.34 C 175.08 226.93 177.43 227.64 179.98 227.82 C 187.41 228.34 194.53 226.15 202.01 226.93 C 210.73 227.77 219.29 226.38 228.01 226.71 C 235.88 226.93 243.47 224.98 251.29 224.88 C 251.55 225.97 251.81 227.05 252.06 228.14 C 246.02 228.37 240.00 228.29 233.99 229.13 C 225.66 230.25 217.37 229.84 209.00 229.79 C 190.90 230.16 172.01 230.89 153.99 229.00 C 145.19 228.50 136.43 227.60 127.72 226.23 C 118.92 224.74 109.90 223.17 100.99 222.70 C 95.54 222.51 90.49 220.69 85.00 220.85 C 80.93 220.92 76.95 220.76 72.91 220.21 C 58.35 218.88 43.77 218.08 29.17 217.38 C 19.46 216.61 9.74 216.50 0.00 216.59 L 0.00 212.24 Z" fill="#d1d3d6" />
<path d="M 273.03 222.64 C 274.59 222.80 276.05 223.91 277.41 224.65 C 274.61 225.15 272.42 225.43 269.78 224.11 C 270.84 223.58 271.93 223.09 273.03 222.64 Z" fill="#c9cace" />
<path d="M 12.91 248.61 C 27.27 248.31 41.64 248.88 56.00 248.59 C 74.38 248.78 93.40 248.04 111.65 250.17 C 100.29 250.72 88.88 250.11 77.50 250.26 C 71.29 250.37 65.19 250.24 58.99 249.87 C 50.82 250.23 42.74 250.73 34.57 249.72 C 27.21 247.92 20.45 249.13 12.91 248.61 Z" fill="#888394" />
<path d="M 0.00 249.93 C 4.64 250.43 9.32 249.48 14.01 249.56 C 20.86 249.61 27.72 249.46 34.57 249.72 C 42.74 250.73 50.82 250.23 58.99 249.87 C 65.19 250.24 71.29 250.37 77.50 250.26 C 77.74 252.17 77.98 254.09 78.22 256.00 L 59.30 256.00 C 59.83 254.22 60.26 252.41 60.71 250.61 C 59.36 250.67 58.01 250.74 56.66 250.80 C 56.54 252.53 56.43 254.27 56.31 256.00 L 38.51 256.00 C 38.96 254.25 39.35 252.48 39.74 250.71 C 38.74 250.65 37.73 250.60 36.73 250.56 C 36.07 252.35 35.53 254.17 34.99 256.00 L 17.68 256.00 C 18.14 254.34 18.52 252.66 18.90 250.98 C 17.87 250.91 16.84 250.85 15.82 250.80 C 15.20 252.50 14.69 254.26 14.21 256.00 L 0.00 256.00 L 0.00 249.93 Z" fill="#423b59" />
<path d="M 258.43 250.16 C 258.53 252.11 258.64 254.05 258.74 256.00 L 254.79 256.00 C 254.73 254.18 254.66 252.37 254.60 250.55 C 255.87 250.42 257.15 250.29 258.43 250.16 Z" fill="#16131c" />
<path d="M 15.82 250.80 C 16.84 250.85 17.87 250.91 18.90 250.98 C 18.52 252.66 18.14 254.34 17.68 256.00 L 14.21 256.00 C 14.69 254.26 15.20 252.50 15.82 250.80 Z" fill="#1a1821" />
<path d="M 36.73 250.56 C 37.73 250.60 38.74 250.65 39.74 250.71 C 39.35 252.48 38.96 254.25 38.51 256.00 L 34.99 256.00 C 35.53 254.17 36.07 252.35 36.73 250.56 Z" fill="#1a171f" />
<path d="M 56.66 250.80 C 58.01 250.74 59.36 250.67 60.71 250.61 C 60.26 252.41 59.83 254.22 59.30 256.00 L 56.31 256.00 C 56.43 254.27 56.54 252.53 56.66 250.80 Z" fill="#14121c" />
<path d="M 77.50 250.26 C 79.19 250.43 80.88 250.61 82.57 250.78 C 82.08 252.52 81.60 254.28 81.03 256.00 L 78.22 256.00 C 77.98 254.09 77.74 252.17 77.50 250.26 Z" fill="#14131c" />
</svg>